<svg xmlns="http://www.w3.org/2000/svg" aria-hidden="true" focusable="false" data-prefix="fab" data-icon="logo" role="img" viewBox="0 0 161 34" class="w-32"><path d="M44.866 25.1094V11.3455C44.866 9.93073 46.0114 8.7854 47.4262 8.7854H47.6133V25.1094H44.866Z" fill="#FFFFFF"/> <path d="M51.5968 25.1094V8.7854H54.4888L61.1063 20.6329V8.7854H61.1736C62.5884 8.7854 63.7338 9.93073 63.7338 11.3455V25.1094H60.8418L54.2243 13.2619V25.1094H51.5968Z" fill="#FFFFFF"/> <path d="M72.3985 25.5062C70.6942 25.5062 69.3642 24.9847 68.4086 23.9441C67.4529 22.9011 66.9738 21.5187 66.9738 19.792H69.7211C69.7211 20.8026 69.9432 21.6111 70.3898 22.2174C70.8514 22.8088 71.5202 23.1032 72.396 23.1032C73.2718 23.1032 73.9406 22.8088 74.4022 22.2174C74.8813 21.6111 75.1183 20.8101 75.1183 19.8145V11.3455C75.1183 9.93073 76.2637 8.7854 77.6785 8.7854H77.8656V19.817C77.8656 21.5437 77.379 22.9261 76.4084 23.9691C75.4527 24.9946 74.1152 25.5087 72.3935 25.5087L72.3985 25.5062Z" fill="#FFFFFF"/> <path d="M81.5992 8.78564H91.2534C91.2534 10.1131 90.1779 11.1886 88.8504 11.1886H84.3465V15.8048H91.2509V18.2078H84.3465V22.7092H91.2509V25.1122H81.5967V8.78564H81.5992Z" fill="#FFFFFF"/> <path d="M151.346 8.78564H161C161 10.1131 159.925 11.1886 158.597 11.1886H154.094V15.8048H160.998V18.2078H154.094V22.7092H160.998V25.1122H151.344V8.78564H151.346Z" fill="#FFFFFF"/> <path d="M102.485 25.5045C100.102 25.5045 98.2157 24.711 96.8234 23.1265C95.4335 21.542 94.7373 19.4809 94.7373 16.9457C94.7373 14.4105 95.4335 12.3519 96.8234 10.765C98.2132 9.18046 100.102 8.38696 102.485 8.38696C104.486 8.38696 106.131 8.9459 107.423 10.0663C108.713 11.1692 109.474 12.609 109.701 14.3806H109.088C107.882 14.3806 106.919 13.4698 106.206 12.4992C105.998 12.2197 105.761 11.9677 105.489 11.7456C104.723 11.1093 103.73 10.7899 102.51 10.7899C100.878 10.7899 99.6006 11.3488 98.6798 12.4692C97.7716 13.5721 97.3174 15.0643 97.3174 16.9457C97.3174 18.8272 97.7716 20.3268 98.6798 21.4472C99.6031 22.5501 100.878 23.1015 102.51 23.1015C103.73 23.1015 104.723 22.7822 105.489 22.1459C105.761 21.9238 106.001 21.6743 106.206 21.3923C106.922 20.4216 107.882 19.5109 109.088 19.5109H109.701C109.474 21.2825 108.716 22.7298 107.423 23.8476C106.131 24.9505 104.486 25.5045 102.485 25.5045Z" fill="#FFFFFF"/> <path d="M116.796 25.1094V11.3031H111.945C111.945 9.91326 113.073 8.7854 114.463 8.7854H124.417V11.3031H119.544V25.1094H116.796Z" fill="#FFFFFF"/> <path d="M127.908 25.1094V11.3455C127.908 9.93073 129.053 8.7854 130.468 8.7854H130.655V25.1094H127.908Z" fill="#FFFFFF"/> <path d="M139.684 25.1094L134.14 8.7854H135.257C136.37 8.7854 137.356 9.50404 137.695 10.5645L140.997 20.8874L144.298 10.5645C144.637 9.50404 145.623 8.7854 146.736 8.7854H147.854L142.309 25.1094H139.682H139.684Z" fill="#FFFFFF"/> <path d="M4.04488 5.76296C4.25199 5.50346 4.47157 5.25143 4.69116 5.00191C4.70114 4.98943 4.7236 4.98694 4.73358 4.97446C4.75354 4.94951 4.78598 4.93454 4.80594 4.90958L4.8259 4.88463C4.97811 4.7424 5.1428 4.59019 5.32995 4.45544C5.99369 3.9514 6.68238 3.56713 7.411 3.31511C9.74158 2.49666 12.3367 3.0007 14.3728 4.92206C17.2149 7.587 16.9604 11.8764 14.6922 14.7285C11.8251 18.9804 6.89947 24.9116 13.719 30.2265C14.9467 31.1822 15.855 31.9707 19.7176 33.0861C17.1899 33.5527 14.8494 33.408 12.2418 32.7418C10.3978 31.7013 7.49833 29.473 6.51021 26.4612C5.01804 21.8949 9.13523 15.0703 11.124 12.4428C13.8563 8.80469 9.43466 4.86716 6.18083 9.26382C4.47906 11.5545 1.5047 18.0397 2.53774 22.848C3.1416 25.5754 3.94757 27.5641 7.144 30.2939C6.55263 29.9446 5.97622 29.5478 5.41728 29.1037C-2.00613 22.1868 -1.14277 11.4946 4.04488 5.76296Z" fill="url(#paint0_linear_2317_6346)"/> <path d="M29.3167 27.5955C29.1096 27.855 28.89 28.107 28.6705 28.3565C28.6605 28.369 28.638 28.3715 28.628 28.384C28.6081 28.4089 28.5756 28.4239 28.5557 28.4489L28.5357 28.4738C28.3835 28.6161 28.2188 28.7683 28.0317 28.903C27.3679 29.4071 26.6767 29.7913 25.9506 30.0433C23.62 30.8618 21.025 30.3577 18.9888 28.4364C16.1467 25.7714 16.4012 21.4821 18.6694 18.63C21.5365 14.3781 26.4622 8.44682 19.6401 3.1319C18.4149 2.17622 17.5042 1.38771 13.6415 0.272329C16.1692 -0.194286 18.5097 -0.0495606 21.1173 0.616675C22.9613 1.6572 25.8608 3.88797 26.8489 6.89726C28.3411 11.4636 24.2239 18.2881 22.2352 20.9157C19.5029 24.5538 23.9245 28.4913 27.1783 24.0946C28.8801 21.804 31.8544 15.3188 30.8214 10.5104C30.2175 7.78308 29.4116 5.79435 26.2151 3.06453C26.8065 3.41387 27.3829 3.81062 27.9418 4.25477C35.3653 11.1692 34.5044 21.8639 29.3167 27.5955Z" fill="url(#paint1_linear_2317_6346)"/> <defs><linearGradient id="paint0_linear_2317_6346" x1="5.88942e-05" y1="18.1495" x2="33.3618" y2="18.1495" gradientUnits="userSpaceOnUse"><stop stop-color="#0082FA"/> <stop offset="1" stop-color="#00F2FE"/></linearGradient> <linearGradient id="paint1_linear_2317_6346" x1="-0.000138779" y1="15.2115" x2="33.3616" y2="15.2115" gradientUnits="userSpaceOnUse"><stop stop-color="#0082FA"/> <stop offset="1" stop-color="#00F2FE"/></linearGradient></defs></svg>